<svg width="19" height="12" viewBox="0 0 19 12" fill="none" xmlns="http://www.w3.org/2000/svg">
<path d="M6.92188 12H0.5625V0.578125H6.92188V1.75H1.89062V5.44531H6.63281V6.60156H1.89062V10.8281H6.92188V12ZM18.3828 12H16.8516L10.625 2.40625H10.5625C10.5781 2.66146 10.5964 2.95312 10.6172 3.28125C10.638 3.60417 10.6536 3.95052 10.6641 4.32031C10.6797 4.6849 10.6875 5.05729 10.6875 5.4375V12H9.45312V0.578125H10.9766L17.1797 10.1406H17.2344C17.224 9.95833 17.2109 9.70052 17.1953 9.36719C17.1797 9.02865 17.1641 8.66667 17.1484 8.28125C17.138 7.89062 17.1328 7.52865 17.1328 7.19531V0.578125H18.3828V12Z" fill="white"/>
</svg>
